<svg xmlns="http://www.w3.org/2000/svg" xmlns:xlink="http://www.w3.org/1999/xlink" width="42" height="42" viewBox="0 0 42 42">
    <defs>
        <linearGradient id="4x6a6ghp3d" x1="50%" x2="86.528%" y1="24.411%" y2="72.222%">
            <stop offset="0%" stop-color="#F3F6F6"/>
            <stop offset="100%" stop-color="#E2E0E1"/>
        </linearGradient>
        <linearGradient id="m1r1724apc" x1="14.848%" x2="43.022%" y1="10.162%" y2="50%">
            <stop offset="0%" stop-color="#0084B4"/>
            <stop offset="100%" stop-color="#004D7D"/>
        </linearGradient>
        <filter id="jwu6nvxcae">
            <feColorMatrix in="SourceGraphic" values="0 0 0 0 1.000000 0 0 0 0 0.403922 0 0 0 0 0.105882 0 0 0 1.000000 0"/>
        </filter>
        <path id="dszzm3bk9a" d="M0 0H42V42H0z"/>
    </defs>
    <g fill="none" fill-rule="evenodd">
        <g>
            <g>
                <g transform="translate(-1373.000000, -895.000000) translate(1372.000000, 870.000000) translate(1.000000, 25.000000)">
                    <mask id="9jcsmwboxb" fill="#fff">
                        <use xlink:href="#dszzm3bk9a"/>
                    </mask>
                    <path fill="#00355B" d="M16 31H26V38H16z" mask="url(#9jcsmwboxb)"/>
                    <rect width="38" height="24" x="2" y="5" fill="url(#4x6a6ghp3d)" stroke="url(#m1r1724apc)" stroke-width="4" mask="url(#9jcsmwboxb)" rx="2"/>
                    <g filter="url(#jwu6nvxcae)">
                        <g mask="url(#9jcsmwboxb)">
                            <g transform="translate(10.000000, 12.000000)">
                                <path stroke="#979797" stroke-width="3" d="M13.7 0h3.471C19.728 0 21.8 2.015 21.8 4.5S19.728 9 17.171 9H13.7M8.3 0H4.829C2.272 0 .2 2.015.2 4.5S2.272 9 4.829 9H8.3"/>
                                <rect width="10" height="3" x="6" y="3" fill="#979797" rx="1.5"/>
                            </g>
                        </g>
                    </g>
                    <rect width="18" height="3" x="12" y="36" fill="#004D7D" mask="url(#9jcsmwboxb)" rx="1"/>
                </g>
            </g>
        </g>
    </g>
</svg>
