<svg xmlns="http://www.w3.org/2000/svg" xmlns:xlink="http://www.w3.org/1999/xlink" width="18" height="18" viewBox="0 0 18 18">
    <defs>
        <filter id="h899afmyqa">
            <feColorMatrix in="SourceGraphic" values="0 0 0 0 1.000000 0 0 0 0 1.000000 0 0 0 0 1.000000 0 0 0 1.000000 0"/>
        </filter>
        <path id="zrutmp9ybb" d="M0 0H18V18H0z"/>
    </defs>
    <g fill="none" fill-rule="evenodd">
        <g>
            <g filter="url(#h899afmyqa)" transform="translate(-61.000000, -680.000000) translate(45.000000, 674.000000)">
                <g transform="translate(25.000000, 15.000000) rotate(-360.000000) translate(-25.000000, -15.000000) translate(16.000000, 6.000000)">
                    <mask id="o9o4i02cvc" fill="#fff">
                        <use xlink:href="#zrutmp9ybb"/>
                    </mask>
                    <use fill="#D8D8D8" fill-opacity="0" xlink:href="#zrutmp9ybb"/>
                    <g fill="#FFF" fill-rule="nonzero" mask="url(#o9o4i02cvc)">
                        <path d="M13.571 0C16.021 0 18 2.02 18 4.5c0 2.41-1.867 4.384-4.22 4.495L13.571 9H11V7h2.571C14.908 7 16 5.885 16 4.5c0-1.33-1.006-2.41-2.27-2.495L13.572 2H11V0h2.571zM7 0v2H4.429l-.16.005C3.006 2.09 2 3.17 2 4.5 2 5.885 3.092 7 4.429 7H7v2H4.429l-.21-.005C1.868 8.885 0 6.91 0 4.5 0 2.02 1.978 0 4.429 0H7zm5 3.5c.552 0 1 .448 1 1s-.448 1-1 1H6c-.552 0-1-.448-1-1s.448-1 1-1h6z" transform="translate(0.000000, 4.500000)"/>
                    </g>
                </g>
            </g>
        </g>
    </g>
</svg>
